<svg fill="#84A6B0" xmlns="http://www.w3.org/2000/svg" width="42.469" height="42.469" viewBox="0 0 42.469 42.469"><g transform="translate(0 0)"><path d="M17.584,31.175a.622.622,0,0,0,.524-.834c-.016-.042-1.551-4.219-2.195-6.413a36.245,36.245,0,0,1-.93-5.653v-.839l1.168,5.887a1.866,1.866,0,0,0,3.661-.726l-1.591-8.017c-.082-.411-.061-.215-3.29-7.142.19-1,.388-1.84.588-2.509A4.5,4.5,0,0,0,15.1,1.042,2.57,2.57,0,0,0,12.953,0,8.715,8.715,0,0,0,10.1.644a.928.928,0,0,0-.569.544,1.006,1.006,0,0,0,.142.944A2.694,2.694,0,0,0,10.086,5.7,3.122,3.122,0,0,0,8.763,8.25v1.836l-1.4,5.161L3.5,22.192a1.866,1.866,0,0,0,1.459,2.765,16.127,16.127,0,0,0-.851,2.085c-.76,2.5-.893,2.976-.9,2.995a.623.623,0,0,0,.493.78c.036.006.275.047.659.1L2.971,37.3h-1.1a1.866,1.866,0,0,0,0,3.733H4.474A1.877,1.877,0,0,0,6.3,39.567l1.8-8.224c.625.043,1.263.071,1.874.071,1.251,0,2.477-.024,3.567-.057l3.546,7.411-.122.032a1.866,1.866,0,1,0,.968,3.6l2.292-.615a1.867,1.867,0,0,0,1.2-2.608ZM12.716,7.107a.622.622,0,0,1,.828.3c-.007-.015.177.377,1.384,2.95l-1.127.527L12.417,7.935a.623.623,0,0,1,.3-.828ZM17,14.821c1.663,8.383,1.592,8.018,1.6,8.053a.622.622,0,0,1-1.226.206l-1.562-7.868a.618.618,0,0,0-.047-.143l-1.435-3.06,1.127-.527,1.5,3.2a.637.637,0,0,1,.047.144ZM12.953,1.244a1.336,1.336,0,0,1,1.149.541,3.312,3.312,0,0,1,.226,2.785c-.121.4-.241.865-.358,1.38a3.1,3.1,0,0,0-.507-.377c-.32-.743-.707-1.544-.966-2.029a.62.62,0,0,0-.249-.252A4.751,4.751,0,0,1,10.86,1.7a6.475,6.475,0,0,1,2.093-.457ZM10.422,3.688a1.464,1.464,0,0,1,.047-.368,4.553,4.553,0,0,0,1.009.958c.087.17.241.474.424.861h-.028a1.453,1.453,0,0,1-1.452-1.452ZM4.59,22.8l3.9-7.011a.607.607,0,0,0,.057-.14l.295-1.087a.622.622,0,0,0,1.168-.3V10.18c0-.008,0-.016,0-.024V8.25a1.869,1.869,0,0,1,1.6-1.848,1.871,1.871,0,0,0-.32,2.061l1.647,3.51h0l.8,1.71v4H10.007v-.75a.622.622,0,1,0-1.244,0v.92L5.678,23.4a.622.622,0,1,1-1.088-.6ZM5.081,39.3a.625.625,0,0,1-.607.489H1.866a.622.622,0,0,1,0-1.244H3.472a.622.622,0,0,0,.608-.49L5.6,31.093c.38.048.8.1,1.243.142Zm-.474-9.6c.133-.445.348-1.162.693-2.3.691-2.273,3.666-7.221,4.432-8.477H13.8a34.146,34.146,0,0,0,.924,5.352c.49,1.669,1.452,4.372,1.934,5.7-.638.034-1.6.08-2.747.117H13.89c-1.172.039-2.532.069-3.923.069a40.06,40.06,0,0,1-5.359-.47ZM20.3,40.247a.62.62,0,0,1-.4.341,21.6,21.6,0,0,1-2.453.637A.622.622,0,0,1,17.281,40l.844-.226a.622.622,0,0,0,.4-.869l-3.635-7.6c.509-.02.965-.041,1.35-.06l4.054,8.469a.619.619,0,0,1,0,.529Zm0,0" transform="translate(0 0)"/><path d="M296.554,39.181l-3.832-8.007a.622.622,0,0,0,.524-.834c-.016-.042-1.551-4.22-2.195-6.413a36.186,36.186,0,0,1-.93-5.646v-.842l1.168,5.884a1.866,1.866,0,1,0,3.661-.727l-.618-3.114a.622.622,0,0,0-1.221.242l.618,3.114a.622.622,0,0,1-1.22.242l-1.562-7.868a.619.619,0,0,0-.047-.143l-.828-1.765c-.007-.015-.013-.03-.021-.044l-.586-1.25,1.127-.527,1.5,3.2a.638.638,0,0,1,.047.144l.456,2.3a.622.622,0,1,0,1.22-.242l-.456-2.3c-.082-.409-.053-.2-3.291-7.142.19-1,.388-1.84.588-2.509a4.5,4.5,0,0,0-.421-3.886A2.57,2.57,0,0,0,288.091,0a8.715,8.715,0,0,0-2.853.643.93.93,0,0,0-.57.544,1.006,1.006,0,0,0,.141.945,2.7,2.7,0,0,0,.415,3.572,3.147,3.147,0,0,0-.411.347,3.091,3.091,0,0,0-.911,2.2v1.833l-1.4,5.164-3.861,6.944a1.866,1.866,0,0,0,1.458,2.765c-.177.373-.338.731-.477,1.067a.622.622,0,1,0,1.149.477,70.752,70.752,0,0,1,4.1-7.574h4.063a34.151,34.151,0,0,0,.924,5.352c.49,1.669,1.452,4.373,1.933,5.7-1.293.068-3.928.187-6.687.187-2.02,0-4.136.058-5.116.088a6.4,6.4,0,0,1,.092-1.346.622.622,0,0,0-1.228-.2,5.433,5.433,0,0,0,.008,2.378.622.622,0,0,0,.614.429l.539-.018-.152,6.591-1.085.211a1.866,1.866,0,1,0,.712,3.664l2.56-.5a1.877,1.877,0,0,0,1.509-1.789l.191-8.26c.447,0,.9-.008,1.354-.008,1.251,0,2.477-.024,3.567-.057l3.546,7.411-.122.033a1.866,1.866,0,0,0,.483,3.669,1.879,1.879,0,0,0,.485-.064l2.29-.615a1.866,1.866,0,0,0,1.2-2.608Zm-7.617-28.3-1.383-2.948a.622.622,0,0,1,1.126-.529l1.384,2.95Zm-.847-9.638a1.335,1.335,0,0,1,1.148.541,3.311,3.311,0,0,1,.226,2.785c-.121.4-.24.865-.358,1.38a3.079,3.079,0,0,0-.507-.377c-.485-1.125-.945-1.991-.966-2.029a.62.62,0,0,0-.249-.252A4.749,4.749,0,0,1,286,1.7a6.486,6.486,0,0,1,2.093-.457ZM285.56,3.688a1.456,1.456,0,0,1,.046-.367,4.546,4.546,0,0,0,1.009.958c.087.17.241.474.424.861h-.028a1.453,1.453,0,0,1-1.451-1.452Zm.132,3.242a1.85,1.85,0,0,1,1.056-.528,1.87,1.87,0,0,0-.32,2.061l2.45,5.222v4h-3.732V8.25a1.854,1.854,0,0,1,.547-1.32ZM279.728,22.8l3.9-7.011a.638.638,0,0,0,.057-.14l.218-.805v3.009l-3.086,5.55a.622.622,0,1,1-1.087-.6Zm2.588,16.857a.625.625,0,0,1-.5.6l-2.56.5a.622.622,0,1,1-.238-1.221l1.577-.306a.622.622,0,0,0,.5-.6l.165-7.155c.378-.009.8-.019,1.245-.027Zm13.121.594a.623.623,0,0,1-.4.342l-2.29.615a.622.622,0,1,1-.323-1.2l.845-.226a.622.622,0,0,0,.4-.869l-3.635-7.6c.509-.02.965-.041,1.35-.06l4.054,8.47a.62.62,0,0,1,0,.527Zm0,0" transform="translate(-254.269 0)"/></g></svg>