<svg fill="#84A6B0" xmlns="http://www.w3.org/2000/svg" width="57.908" height="57.919" viewBox="0 0 57.908 57.919">
  <g id="train" transform="translate(-0.048)">
    <path id="Path_346" data-name="Path 346" d="M136,77.512a.965.965,0,0,0,.965-.965V64.965A.965.965,0,0,0,136,64H105.113a.965.965,0,0,0-.965.965V76.547a.965.965,0,0,0,.965.965Zm-.965-1.93H121.52V65.93h13.512ZM106.078,65.93H119.59v9.651H106.078Zm0,0" transform="translate(-91.541 -56.279)"/>
    <path id="Path_347" data-name="Path 347" d="M57.685,56.26,43.891,42.466h2.5a2.9,2.9,0,0,0,2.9-2.9V10.616a6.763,6.763,0,0,0-6.756-6.756H37.7V2.9A2.9,2.9,0,0,0,34.8,0H23.223a2.9,2.9,0,0,0-2.9,2.9v.965H15.5a6.763,6.763,0,0,0-6.756,6.756V39.57a2.9,2.9,0,0,0,2.9,2.9h2.5L.343,56.26a.965.965,0,1,0,1.365,1.365L16.867,42.466H41.161L56.32,57.625a.965.965,0,0,0,1.365-1.365ZM22.258,2.9a.965.965,0,0,1,.965-.965H34.8a.965.965,0,0,1,.965.965v.965H22.258ZM10.677,39.57V10.616A4.831,4.831,0,0,1,15.5,5.791H42.526a4.832,4.832,0,0,1,4.826,4.826V39.57a.965.965,0,0,1-.965.965H11.642A.965.965,0,0,1,10.677,39.57Zm0,0"/>
    <path id="Path_348" data-name="Path 348" d="M149.1,242.616v-9.651a.965.965,0,0,0-.965-.965H121.113a.965.965,0,0,0-.965.965v9.651a.965.965,0,0,0,.965.965h27.024A.965.965,0,0,0,149.1,242.616Zm-1.93-.965H122.078V233.93h25.093Zm0,0" transform="translate(-105.611 -204.011)"/>
    <path id="Path_349" data-name="Path 349" d="M155.043,261.791a2.9,2.9,0,1,0-2.9-2.9A2.9,2.9,0,0,0,155.043,261.791Zm0-3.861a.965.965,0,1,1-.965.965A.965.965,0,0,1,155.043,257.93Zm0,0" transform="translate(-133.75 -225.116)"/>
    <path id="Path_350" data-name="Path 350" d="M283.043,261.791a2.9,2.9,0,1,0-2.9-2.9A2.9,2.9,0,0,0,283.043,261.791Zm0-3.861a.965.965,0,1,1-.965.965A.965.965,0,0,1,283.043,257.93Zm0,0" transform="translate(-246.308 -225.116)"/>
    <path id="Path_351" data-name="Path 351" d="M166.346,369.93a.965.965,0,1,0,0-1.93H145.113a.965.965,0,1,0,0,1.93Zm0,0" transform="translate(-126.716 -323.604)"/>
    <path id="Path_352" data-name="Path 352" d="M104.148,416.965a.965.965,0,0,0,.965.965H136a.965.965,0,0,0,0-1.93H105.113a.965.965,0,0,0-.965.965Zm0,0" transform="translate(-91.541 -365.813)"/>
    <path id="Path_353" data-name="Path 353" d="M99.579,464H57.113a.965.965,0,0,0,0,1.93H99.579a.965.965,0,0,0,0-1.93Zm0,0" transform="translate(-49.332 -408.023)"/>
  </g>
</svg>
