<svg fill="#84A6B0" xmlns="http://www.w3.org/2000/svg" width="50.686" height="46.55" viewBox="0 0 50.686 46.55"><path d="M48.523,23.789H46.764A21.251,21.251,0,0,0,44.82,16.1a.741.741,0,1,0-1.345.625,19.78,19.78,0,0,1,1.8,7.06H11.315a.741.741,0,1,0,0,1.483H48.523a.681.681,0,0,1,.68.68v.9a.681.681,0,0,1-.68.68H2.163a.681.681,0,0,1-.68-.68v-.9a.681.681,0,0,1,.68-.68h5.7a.741.741,0,1,0,0-1.483H5.409A19.979,19.979,0,0,1,24.009,5.2h.008q.3-.02.6-.031l.118,0,.21-.005c.133,0,.266,0,.4,0,.177,0,.354,0,.531.008l.157,0c.136,0,.272.012.408.019l.216.012a20,20,0,0,1,15.172,8.641A.741.741,0,1,0,43.049,13,21.479,21.479,0,0,0,28.383,3.89a3.61,3.61,0,0,0,.577-1.957c0-.4-.18-1.146-1.384-1.589a7.432,7.432,0,0,0-4.466,0c-1.2.443-1.384,1.186-1.384,1.589A3.614,3.614,0,0,0,22.3,3.885a21.468,21.468,0,0,0-18.378,19.9H2.163A2.166,2.166,0,0,0,0,25.952v.9A2.165,2.165,0,0,0,2.163,29.02H10.15a9.187,9.187,0,0,0-1.138.919L9,29.953a.672.672,0,0,0-.064.068L5.413,34.3a2.044,2.044,0,0,0-2.79.579L1.238,36.917a2.051,2.051,0,0,0,.544,2.843L11.256,46.2a2.034,2.034,0,0,0,1.147.355,2.081,2.081,0,0,0,.389-.037,2.033,2.033,0,0,0,1.31-.862l1.384-2.041a2.051,2.051,0,0,0-.544-2.843l-.054-.037a4.793,4.793,0,0,1,2.495-1.506,16.294,16.294,0,0,1,5.995.1A14.163,14.163,0,0,0,29.42,39l2.73-.754a14.055,14.055,0,0,0,4.975-2.516l.033-.027,4.687-4.151a2.288,2.288,0,0,0,.7-2.528h5.981a2.165,2.165,0,0,0,2.163-2.163v-.905a2.165,2.165,0,0,0-2.163-2.163ZM25.343,1.483a3.473,3.473,0,0,1,2.134.481,2.135,2.135,0,0,1-.945,1.741c-.146-.008-.29-.014-.433-.019l-.145-.005c-.207-.006-.411-.009-.611-.009-.142,0-.287,0-.432.005l-.212.005-.254.009-.291.014a2.134,2.134,0,0,1-.944-1.741,3.473,3.473,0,0,1,2.134-.481ZM30.66,29.378a2.446,2.446,0,0,0-.2-.358h7.112L34.5,31.055l-4.383,1.268-.149,0a2.522,2.522,0,0,0,.691-2.949Zm-8.04-.358-1.07.223-.827-.223ZM14.258,42.777l-1.384,2.041a.565.565,0,0,1-.785.15L2.616,38.533a.565.565,0,0,1-.15-.784L3.85,35.707a.564.564,0,0,1,.785-.15l.512.347h0l8.961,6.087a.566.566,0,0,1,.15.785Zm26.677-12.4a.651.651,0,0,0-.051.041l-4.692,4.156a12.582,12.582,0,0,1-4.436,2.239l-2.73.754a12.659,12.659,0,0,1-5.406.292,17.653,17.653,0,0,0-6.572-.082,6.3,6.3,0,0,0-3.393,2.113L6.647,35.131,10.048,31a6.98,6.98,0,0,1,4.48-1.98h.03a5.589,5.589,0,0,1,1.54.287l.327.09,4.91,1.324a.741.741,0,0,0,.345.01l6.43-1.341a1.105,1.105,0,0,1,.84.163,1,1,0,0,1,.353.422,1.037,1.037,0,0,1-.48,1.341L26.63,32.478a.741.741,0,0,0,.363,1.4l3.254-.07a.747.747,0,0,0,.19-.029l4.585-1.326a.743.743,0,0,0,.2-.094l4.626-3.062c.388-.24.9-.437,1.18-.031a.883.883,0,0,1-.1,1.116Zm0,0" transform="translate(0 0)"/></svg>