<svg fill="#84A6B0" xmlns="http://www.w3.org/2000/svg" width="52.469" height="37.282" viewBox="0 0 52.469 37.282"><path d="M49.761,72.418V59.486a3.217,3.217,0,0,0-3.214-3.214H5.922a3.217,3.217,0,0,0-3.214,3.214V72.418A3.194,3.194,0,0,0,0,75.571v8a1.012,1.012,0,0,0,1.012,1.012H2.1v4.993a1.012,1.012,0,0,0,1.012,1.012H4.935v1.949a1.012,1.012,0,1,0,2.024,0V90.593h38.55v1.949a1.012,1.012,0,1,0,2.024,0V90.593H49.36a1.012,1.012,0,0,0,1.012-1.012V84.588h1.084a1.012,1.012,0,0,0,1.012-1.012v-8A3.194,3.194,0,0,0,49.761,72.418ZM4.732,59.486a1.191,1.191,0,0,1,1.19-1.19H46.547a1.191,1.191,0,0,1,1.19,1.19v12.9H44.183c.707-.761,1.426-1.562,2.171-2.418a1.012,1.012,0,0,0,0-1.329,82.548,82.548,0,0,0-8.744-8.744,1.012,1.012,0,0,0-1.329,0,82.548,82.548,0,0,0-8.744,8.744,1.012,1.012,0,0,0,0,1.329c.745.857,1.464,1.657,2.171,2.418h-6.95c.707-.761,1.426-1.562,2.171-2.418a1.012,1.012,0,0,0,0-1.329,82.574,82.574,0,0,0-8.744-8.744,1.012,1.012,0,0,0-1.329,0,82.574,82.574,0,0,0-8.744,8.744,1.012,1.012,0,0,0,0,1.329c.745.856,1.464,1.657,2.171,2.418H4.732Zm27.77,12.9c-.931-.956-1.872-1.972-2.854-3.082a79.017,79.017,0,0,1,7.3-7.3,79.017,79.017,0,0,1,7.3,7.3c-.982,1.111-1.923,2.126-2.854,3.082Zm-21.424,0c-.931-.956-1.872-1.972-2.854-3.082a79.035,79.035,0,0,1,7.3-7.3,79.036,79.036,0,0,1,7.3,7.3c-.982,1.111-1.923,2.126-2.854,3.082Zm37.27,16.187H4.121V84.588H48.348Zm2.1-6H2.024V75.571A1.167,1.167,0,0,1,3.19,74.406h46.09a1.167,1.167,0,0,1,1.165,1.165v6.993Z" transform="translate(0 -56.272)"/></svg>