<svg fill="#84A6B0" xmlns="http://www.w3.org/2000/svg" width="48.11" height="48.11" viewBox="0 0 48.11 48.11"><path d="M192.22,109.69a4.8,4.8,0,0,0,.264.484c.088.132.22.264.308.4a3.963,3.963,0,0,0,.44.4,1.481,1.481,0,0,0,.528.264,2.177,2.177,0,0,0,.572.176,2.7,2.7,0,0,0,.572.044,2.508,2.508,0,0,0,.572-.044,1.575,1.575,0,0,0,.484-.176H196a3.279,3.279,0,0,0,.528-.308,2.845,2.845,0,0,0,.4-.352l.044-.044a2.418,2.418,0,0,0,.308-.4,1.375,1.375,0,0,0,.22-.44c0-.044,0-.044.044-.088a2.846,2.846,0,0,0,.176-.572,3.739,3.739,0,0,0,0-1.143,4.085,4.085,0,0,0-.176-.572,2.5,2.5,0,0,0-.528-.792l-.088-.088a3.847,3.847,0,0,0-.44-.352c-.176-.088-.308-.176-.484-.264a2.479,2.479,0,0,0-.528-.176,2.706,2.706,0,0,0-.572-.044,2.508,2.508,0,0,0-.572.044,2.479,2.479,0,0,0-.528.176h-.044a4.794,4.794,0,0,0-.484.264,3.844,3.844,0,0,0-.44.352,2.846,2.846,0,0,0-.352.4,4.8,4.8,0,0,0-.264.484,2.478,2.478,0,0,0-.176.528,2.7,2.7,0,0,0-.044.572,2.507,2.507,0,0,0,.044.572A3.989,3.989,0,0,0,192.22,109.69Z" transform="translate(-170.892 -93.99)"/><path d="M185.516,192.718H184.5V181.943a1.135,1.135,0,0,0-1.143-1.143h-4.617a1.135,1.135,0,0,0-1.143,1.143v2.375a1.135,1.135,0,0,0,1.143,1.143h.923v7.3h-.923A1.135,1.135,0,0,0,177.6,193.9v2.375a1.135,1.135,0,0,0,1.143,1.143h6.772a1.135,1.135,0,0,0,1.143-1.143V193.9A1.174,1.174,0,0,0,185.516,192.718Z" transform="translate(-158.075 -160.923)"/><path d="M24.055,0A24.055,24.055,0,1,0,48.11,24.055,24.06,24.06,0,0,0,24.055,0Zm0,44.943A20.889,20.889,0,1,1,44.943,24.055,20.908,20.908,0,0,1,24.055,44.943Z"/></svg>